<?xml version="1.0" encoding="UTF-8" standalone="no"?>
<!-- Created with Inkscape (http://www.inkscape.org/) -->

<svg
   width="200mm"
   height="200mm"
   viewBox="0 0 200 200"
   version="1.1"
   id="svg1"
   inkscape:version="1.3.2 (091e20e, 2023-11-25, custom)"
   sodipodi:docname="Nix_v2.svg"
   inkscape:export-filename="Nix-zoomed.png"
   inkscape:export-xdpi="130.048"
   inkscape:export-ydpi="130.048"
   xmlns:inkscape="http://www.inkscape.org/namespaces/inkscape"
   xmlns:sodipodi="http://sodipodi.sourceforge.net/DTD/sodipodi-0.dtd"
   xmlns="http://www.w3.org/2000/svg"
   xmlns:svg="http://www.w3.org/2000/svg">
  <sodipodi:namedview
     id="namedview1"
     pagecolor="#505050"
     bordercolor="#eeeeee"
     borderopacity="1"
     inkscape:showpageshadow="0"
     inkscape:pageopacity="0"
     inkscape:pagecheckerboard="0"
     inkscape:deskcolor="#505050"
     inkscape:document-units="mm"
     inkscape:zoom="0.89989652"
     inkscape:cx="477.2771"
     inkscape:cy="559.50878"
     inkscape:window-width="2560"
     inkscape:window-height="1369"
     inkscape:window-x="1912"
     inkscape:window-y="-8"
     inkscape:window-maximized="1"
     inkscape:current-layer="layer1"
     showguides="true">
    <sodipodi:guide
       position="-44.043168,40"
       orientation="0,1"
       id="guide1"
       inkscape:locked="false"
       inkscape:label=""
       inkscape:color="rgb(0,134,229)" />
    <sodipodi:guide
       position="-39.209161,160"
       orientation="0,1"
       id="guide2"
       inkscape:locked="false"
       inkscape:label=""
       inkscape:color="rgb(0,134,229)" />
    <sodipodi:guide
       position="56,120.14938"
       orientation="-1,0"
       id="guide3"
       inkscape:locked="false"
       inkscape:label=""
       inkscape:color="rgb(0,134,229)" />
    <sodipodi:guide
       position="144,107.07966"
       orientation="-1,0"
       id="guide4"
       inkscape:locked="false"
       inkscape:label=""
       inkscape:color="rgb(0,134,229)" />
  </sodipodi:namedview>
  <defs
     id="defs1" />
  <g
     inkscape:label="Vrstva 1"
     inkscape:groupmode="layer"
     id="layer1">
    <circle
       style="display:none;fill:#000000;fill-opacity:0;stroke:#c084fc;stroke-width:1.11661;stroke-linecap:round;stroke-linejoin:round;stroke-miterlimit:1;stroke-dasharray:none;stroke-opacity:1;paint-order:fill markers stroke"
       id="path1"
       cx="100"
       cy="100"
       r="99.441696" />
    <circle
       style="fill:#000000;fill-opacity:0;stroke:#c049fc;stroke-width:12.6388;stroke-linecap:round;stroke-linejoin:round;stroke-miterlimit:1;stroke-dasharray:none;stroke-opacity:1;paint-order:fill markers stroke"
       id="path5"
       cx="150.98595"
       cy="36.951061"
       r="9.874032" />
    <path
       style="display:none;fill:#000000;fill-opacity:0;stroke:#c049fc;stroke-width:20;stroke-linecap:round;stroke-linejoin:round;stroke-miterlimit:1;stroke-dasharray:none;stroke-opacity:1;paint-order:fill markers stroke"
       d="m 135.93054,84.984972 v 16.292398 c 1.36622,32.81825 -16.64336,50.09328 -45.948744,58.30683"
       id="path6"
       sodipodi:nodetypes="ccc" />
    <path
       style="display:none;fill:#000000;fill-opacity:0;stroke:#c084fc;stroke-width:20;stroke-linecap:round;stroke-linejoin:round;stroke-miterlimit:1;stroke-dasharray:none;stroke-opacity:1;paint-order:fill markers stroke"
       d="M 56,160 V 79.898656 C 55.22531,36.598043 53.365915,36.408065 78.820616,71.119021 L 100,100 m 0,0 13.83796,18.86995 m 0,0 20.60147,28.09291 L 144,160"
       id="path4"
       sodipodi:nodetypes="ccccccccc" />
    <path
       style="display:inline;fill:#000000;fill-opacity:0;stroke:#c049fc;stroke-width:26.3308;stroke-linecap:round;stroke-linejoin:round;stroke-miterlimit:1;stroke-dasharray:none;paint-order:fill markers stroke"
       d="m 150.89036,75.72194 0.0956,44.88236 -47.64186,53.87775"
       id="path2"
       sodipodi:nodetypes="ccc" />
    <g
       id="path7"
       transform="matrix(1.3165376,0,0,1.3165376,-28.0673,-36.163967)">
      <path
         id="path12"
         style="color:#000000;fill:#c084fc;stroke-linecap:round;stroke-linejoin:round;stroke-miterlimit:1;-inkscape-stroke:none;paint-order:fill markers stroke"
         d="m 58.308586,36.207092 c -1.498919,-0.03347 -3.125787,0.193789 -4.667933,0.853695 -3.084289,1.319813 -4.871708,3.721659 -5.777425,5.466333 -0.905717,1.744673 -1.240756,3.141348 -1.503784,4.466911 -0.526055,2.651124 -0.6346,5.138846 -0.697115,8.177795 -0.124314,6.043104 0.145254,14.102186 0.337447,24.763863 v 80.064361 a 10,10 0 0 0 10.000423,9.99991 10,10 0 0 0 9.999907,-9.99991 V 79.898482 a 10.001,10.001 0 0 0 -0.0021,-0.177767 c -0.07479,-4.180324 -0.06281,-5.901011 -0.130742,-9.2599 1.808595,2.46856 2.673873,3.552138 4.888591,6.572209 l 21.179586,28.880926 13.837919,18.86913 2.94452,4.01526 13.27413,-15.01149 -0.002,-0.70951 -0.0884,-0.12041 L 108.0642,94.08573 86.884619,65.205322 C 80.552716,56.570911 75.937215,50.101858 72.175956,45.460791 c -1.880629,-2.320533 -3.451709,-4.17776 -5.609477,-5.954675 -1.078882,-0.888457 -2.307695,-1.825789 -4.36149,-2.590023 -1.026898,-0.382118 -2.397486,-0.675526 -3.896403,-0.709001 z m 80.911854,100.364418 -13.55886,15.33291 0.71314,0.97255 9.56065,13.03693 a 10,10 0 0 0 13.97848,2.15078 10,10 0 0 0 2.15077,-13.97899 l -9.56066,-13.03694 z" />
      <path
         style="color:#000000;fill:#000000;fill-opacity:0;stroke-linecap:round;stroke-linejoin:round;stroke-miterlimit:1;-inkscape-stroke:none;paint-order:fill markers stroke"
         d="M 56,160 V 79.898656 C 55.22531,36.598043 53.365915,36.408065 78.820616,71.119021 L 100,100 m 0,0 13.83796,18.86995 m 0,0 20.60147,28.09291 L 144,160"
         id="path11" />
    </g>
    <g
       id="path3"
       transform="matrix(1.3165376,0,0,1.3165376,-28.0673,-36.163967)">
      <path
         style="color:#000000;fill:#000000;fill-opacity:0;stroke-linecap:round;stroke-linejoin:round;stroke-miterlimit:1;-inkscape-stroke:none;paint-order:fill markers stroke"
         d="m 135.93054,84.98497 0.0726,34.09121 L 99.815896,160"
         id="path13" />
    </g>
  </g>
</svg>
